<?xml version="1.0" standalone="no"?>
<!DOCTYPE svg PUBLIC "-//W3C//DTD SVG 20010904//EN"
 "http://www.w3.org/TR/2001/REC-SVG-20010904/DTD/svg10.dtd">
<svg version="1.0" xmlns="http://www.w3.org/2000/svg"
 width="392.000000pt" height="100.000000pt" viewBox="0 0 392.000000 100.000000"
 preserveAspectRatio="xMidYMid meet">

<g transform="translate(0.000000,100.000000) scale(0.100000,-0.100000)"
fill="#000000" stroke="none">
<path d="M707 823 c-3 -4 -8 -72 -12 -150 -6 -128 -5 -143 9 -149 9 -4 19 -5
21 -3 2 2 8 46 14 98 9 81 14 98 38 123 20 21 36 28 65 28 51 0 73 -40 64
-117 -9 -73 -21 -90 -96 -128 -73 -37 -92 -55 -109 -104 -15 -45 -14 -130 3
-159 17 -31 65 -62 97 -62 14 0 42 11 62 24 l36 25 3 -27 c2 -16 9 -27 18 -27
12 0 17 26 24 143 6 103 5 147 -3 155 -19 19 -28 -3 -40 -91 -13 -98 -30 -135
-70 -151 -59 -25 -101 18 -101 102 0 63 31 102 115 146 64 33 71 40 88 86 36
96 11 198 -56 226 -33 14 -96 -1 -118 -28 -13 -14 -14 -13 -19 12 -5 28 -24
44 -33 28z"/>
<path d="M1827 823 c-3 -4 -8 -72 -12 -150 -6 -128 -5 -143 9 -149 9 -4 19 -5
21 -3 2 2 8 46 14 98 9 81 14 98 38 123 20 21 36 28 65 28 51 0 73 -40 64
-117 -9 -73 -21 -90 -96 -128 -73 -37 -92 -55 -109 -104 -15 -45 -14 -130 3
-159 17 -31 65 -62 97 -62 14 0 42 11 62 24 l36 25 3 -27 c2 -16 9 -27 18 -27
12 0 17 26 24 143 6 103 5 147 -3 155 -19 19 -28 -3 -40 -91 -13 -98 -30 -135
-70 -151 -59 -25 -101 18 -101 102 0 63 31 102 115 146 64 33 71 40 88 86 36
96 11 198 -56 226 -33 14 -96 -1 -118 -28 -13 -14 -14 -13 -19 12 -5 28 -24
44 -33 28z"/>
<path d="M2947 823 c-3 -4 -8 -72 -12 -150 -6 -128 -5 -143 9 -149 9 -4 19 -5
21 -3 2 2 8 46 14 98 9 81 14 98 38 123 20 21 36 28 65 28 51 0 73 -40 64
-117 -9 -73 -21 -90 -96 -128 -73 -37 -92 -55 -109 -104 -15 -45 -14 -130 3
-159 17 -31 65 -62 97 -62 14 0 42 11 62 24 l36 25 3 -27 c2 -16 9 -27 18 -27
12 0 17 26 24 143 6 103 5 147 -3 155 -19 19 -28 -3 -40 -91 -13 -98 -30 -135
-70 -151 -59 -25 -101 18 -101 102 0 63 31 102 115 146 64 33 71 40 88 86 36
96 11 198 -56 226 -33 14 -96 -1 -118 -28 -13 -14 -14 -13 -19 12 -5 28 -24
44 -33 28z"/>
<path d="M1366 806 c-52 -20 -110 -78 -138 -140 -21 -45 -23 -66 -23 -191 0
-175 9 -206 71 -235 37 -18 58 -21 119 -18 69 3 77 6 111 38 48 46 79 112 64
140 -14 27 -42 40 -83 40 l-34 0 43 83 c79 152 89 234 31 272 -35 23 -114 28
-161 11z m148 -55 c28 -31 11 -95 -61 -227 -42 -75 -47 -81 -86 -90 -27 -6
-42 -15 -42 -24 0 -13 16 -14 97 -11 83 3 99 1 104 -13 9 -24 -14 -73 -48
-101 -25 -21 -40 -25 -94 -25 -126 0 -139 21 -139 225 0 133 15 183 71 239 38
37 58 45 125 45 43 1 60 -3 73 -18z"/>
<path d="M2433 810 c-63 -20 -137 -135 -113 -179 9 -18 64 -41 98 -41 17 0 15
-7 -13 -57 -61 -103 -90 -226 -65 -273 20 -38 131 -53 193 -26 123 54 182 207
157 409 -13 106 -25 134 -64 154 -37 19 -148 26 -193 13z m181 -53 c25 -18 35
-77 36 -198 0 -131 -17 -186 -76 -245 -48 -48 -92 -62 -157 -48 -40 9 -42 11
-45 50 -4 50 20 114 77 212 35 61 46 72 69 72 35 0 56 14 49 32 -4 12 -22 14
-85 10 -45 -2 -92 -2 -106 2 -23 6 -24 9 -14 36 5 17 24 44 40 60 28 28 34 30
112 30 51 0 89 -5 100 -13z"/>
<path d="M3545 785 c-5 -2 -27 -6 -49 -10 -116 -19 -114 -140 5 -302 55 -74
258 -283 276 -283 10 0 13 53 13 280 0 273 0 280 -20 280 -19 0 -20 -7 -20
-242 l0 -242 -71 69 c-124 123 -229 277 -229 334 1 46 24 64 87 68 81 6 103
11 103 27 0 22 -57 34 -95 21z"/>
<path d="M52 503 c3 -255 4 -278 21 -281 16 -3 17 14 17 244 l0 248 71 -69
c84 -83 185 -213 211 -273 38 -85 7 -128 -102 -140 -48 -5 -65 -11 -65 -22 0
-21 130 -19 173 4 81 42 70 137 -35 285 -63 88 -251 281 -275 281 -17 0 -18
-13 -16 -277z"/>
</g>
</svg>
